<svg width="160" height="20" viewBox="0 0 160 20" fill="none" xmlns="http://www.w3.org/2000/svg">
<path fill-rule="evenodd" clip-rule="evenodd" d="M3.23493 12.4731C2.91735 12.0969 2.53156 11.3277 1.84497 10.394C1.45582 9.86581 0.490788 8.87132 0.203403 8.36621C-0.0459627 7.9198 -0.0191252 7.71964 0.0401411 7.34972C0.145255 6.69162 0.865396 6.17918 1.63362 6.24834C2.21398 6.29969 2.70601 6.65913 3.14882 6.99866C3.41608 7.20301 3.74484 7.60017 3.94277 7.82443C4.12504 8.02983 4.16977 8.11471 4.36434 8.35783C4.62154 8.67955 4.70205 8.83883 4.60364 8.48463C4.52425 7.96486 4.39454 7.07726 4.20667 6.29235C4.06354 5.69713 4.02887 5.60386 3.89245 5.14696C3.7482 4.66072 3.67439 4.32014 3.53909 3.80456C3.44516 3.43988 3.2763 2.6948 3.23046 2.27562C3.16672 1.7024 3.13317 0.767645 3.52567 0.337992C3.83318 0.00160511 4.53879 -0.100044 4.97602 0.107447C5.54855 0.378861 5.87396 1.15852 6.02268 1.46976C6.28994 2.02936 6.45544 2.67593 6.59969 3.52476C6.78308 4.60518 7.12078 6.10477 7.13197 6.4202C7.1588 6.03351 7.05593 5.21927 7.12749 4.8483C7.19235 4.51191 7.49427 4.12103 7.87224 4.01519C8.19205 3.92612 8.56666 3.89363 8.89654 3.95756C9.24654 4.02462 9.61556 4.25936 9.7531 4.48048C10.1579 5.13439 10.1657 6.4705 10.1825 6.39924C10.2787 6.00522 10.2619 5.11133 10.5001 4.73931C10.6566 4.4941 11.0558 4.27298 11.2683 4.23735C11.5971 4.18286 12.0007 4.16609 12.3463 4.22897C12.6247 4.28032 13.0016 4.59051 13.1033 4.73931C13.3471 5.0998 13.4858 6.11944 13.5271 6.47679C13.5439 6.62455 13.6099 6.066 13.8548 5.70551C14.3088 5.03588 15.9157 4.90594 15.9772 6.37514C16.0051 7.06049 15.9995 7.02905 15.9995 7.49014C15.9995 8.03192 15.9861 8.35783 15.9548 8.74976C15.9201 9.16893 15.824 10.1163 15.6842 10.5753C15.588 10.8907 15.2693 11.6001 14.9551 12.0256C14.9551 12.0256 13.7541 13.3355 13.6233 13.9255C13.4913 14.5144 13.535 14.5186 13.5092 14.9368C13.4835 15.3538 13.6445 15.903 13.6445 15.903C13.6445 15.903 12.7477 16.0119 12.2646 15.9396C11.8274 15.8736 11.2862 15.0583 11.1464 14.8089C10.9541 14.4652 10.5437 14.5312 10.3838 14.7848C10.1322 15.1862 9.59096 15.9061 9.20852 15.9512C8.46154 16.0392 6.91167 15.9836 5.69839 15.9721C5.69839 15.9721 5.90527 14.9127 5.44455 14.549C5.10349 14.2776 4.51642 13.7274 4.1653 13.4382L3.23493 12.4731Z" fill="white" fill-opacity="0.24"/>
<path fill-rule="evenodd" clip-rule="evenodd" d="M3.23493 12.4731C2.91735 12.0969 2.53156 11.3277 1.84497 10.394C1.45582 9.86581 0.490788 8.87132 0.203403 8.36621C-0.0459627 7.9198 -0.0191252 7.71964 0.0401411 7.34972C0.145255 6.69162 0.865396 6.17918 1.63362 6.24834C2.21398 6.29969 2.70601 6.65913 3.14882 6.99866C3.41608 7.20301 3.74484 7.60017 3.94277 7.82443C4.12504 8.02983 4.16977 8.11471 4.36434 8.35783C4.62154 8.67955 4.70205 8.83883 4.60364 8.48463C4.52425 7.96486 4.39454 7.07726 4.20667 6.29235C4.06354 5.69713 4.02887 5.60386 3.89245 5.14696C3.7482 4.66072 3.67439 4.32014 3.53909 3.80456C3.44516 3.43988 3.2763 2.6948 3.23046 2.27562C3.16672 1.7024 3.13317 0.767645 3.52567 0.337992C3.83318 0.00160511 4.53879 -0.100044 4.97602 0.107447C5.54855 0.378861 5.87396 1.15852 6.02268 1.46976C6.28994 2.02936 6.45544 2.67593 6.59969 3.52476C6.78308 4.60518 7.12078 6.10477 7.13197 6.4202C7.1588 6.03351 7.05593 5.21927 7.12749 4.8483C7.19235 4.51191 7.49427 4.12103 7.87224 4.01519C8.19205 3.92612 8.56666 3.89363 8.89654 3.95756C9.24654 4.02462 9.61556 4.25936 9.7531 4.48048C10.1579 5.13439 10.1657 6.4705 10.1825 6.39924C10.2787 6.00522 10.2619 5.11133 10.5001 4.73931C10.6566 4.4941 11.0558 4.27298 11.2683 4.23735C11.5971 4.18286 12.0007 4.16609 12.3463 4.22897C12.6247 4.28032 13.0016 4.59051 13.1033 4.73931C13.3471 5.0998 13.4858 6.11944 13.5271 6.47679C13.5439 6.62455 13.6099 6.066 13.8548 5.70551C14.3088 5.03588 15.9157 4.90594 15.9772 6.37514C16.0051 7.06049 15.9995 7.02905 15.9995 7.49014C15.9995 8.03192 15.9861 8.35783 15.9548 8.74976C15.9201 9.16893 15.824 10.1163 15.6842 10.5753C15.588 10.8907 15.2693 11.6001 14.9551 12.0256C14.9551 12.0256 13.7541 13.3355 13.6233 13.9255C13.4913 14.5144 13.535 14.5186 13.5092 14.9368C13.4835 15.3538 13.6445 15.903 13.6445 15.903C13.6445 15.903 12.7477 16.0119 12.2646 15.9396C11.8274 15.8736 11.2862 15.0583 11.1464 14.8089C10.9541 14.4652 10.5437 14.5312 10.3838 14.7848C10.1322 15.1862 9.59096 15.9061 9.20852 15.9512C8.46154 16.0392 6.91167 15.9836 5.69839 15.9721C5.69839 15.9721 5.90527 14.9127 5.44455 14.549C5.10349 14.2776 4.51642 13.7274 4.1653 13.4382L3.23493 12.4731Z" fill="white" fill-opacity="0.24"/>
<path fill-rule="evenodd" clip-rule="evenodd" d="M10.1898 12.8563L10.1719 9.2168L10.1898 12.8563Z" fill="white" fill-opacity="0.24"/>
<path fill-rule="evenodd" clip-rule="evenodd" d="M7.95703 9.25586L7.98051 12.8461L7.95703 9.25586Z" fill="white" fill-opacity="0.24"/>
<path d="M23.1503 16V7.588H24.6623V11.044H28.3943V7.588H29.9183V16H28.3943V12.364H24.6623V16H23.1503ZM36.388 14.344V11.248C36.016 10.864 35.284 10.696 34.72 10.72C33.748 10.744 32.944 11.404 32.944 12.784C32.944 14.188 33.748 14.836 34.72 14.872C35.284 14.884 36.016 14.704 36.388 14.344ZM31.54 12.784C31.54 10.864 32.86 9.544 34.756 9.544C35.332 9.544 36.004 9.676 36.508 10L36.628 9.592H37.792V16H36.628L36.508 15.58C36.004 15.916 35.332 16.048 34.756 16.048C32.86 16.048 31.54 14.716 31.54 12.784ZM38.6903 16L40.9823 12.484L38.8343 9.652H40.5023L42.1463 11.956H42.4943V9.652H43.7903V11.956H44.1503L45.7943 9.652H47.4623L45.3023 12.484L47.5943 16H45.9383L44.1503 13.12H43.7903V16H42.4943V13.12H42.1463L40.3463 16H38.6903ZM48.3709 16L48.7309 9.652H50.3149L52.3309 14.332L54.3349 9.652H55.9309L56.2789 16H54.9229L54.7549 11.704H54.6949L52.8229 16H52.3309H51.8269L49.9549 11.704H49.8949L49.7149 16H48.3709ZM57.7136 16V9.652H59.0696V13.756L62.1656 9.652H63.3176V16H61.9616V11.884L58.8896 16H57.7136ZM66.3978 16V10.876H64.3938V9.652H69.8178V10.876H67.8018V16H66.3978ZM71.7819 12.28H75.0219C74.9859 11.284 74.4099 10.744 73.4379 10.744C72.5139 10.744 71.8299 11.38 71.7819 12.28ZM73.7139 16.048C71.7939 16.048 70.3659 14.98 70.3059 12.964C70.2459 10.972 71.4939 9.592 73.5099 9.604C75.6339 9.616 76.4019 11.056 76.4019 13.048V13.444H71.7699C71.8779 14.38 72.7539 14.824 73.7259 14.848C74.4699 14.872 75.2979 14.752 75.8379 14.536L76.1019 15.628C75.4419 15.928 74.6139 16.048 73.7139 16.048ZM80.7175 16V9.652H82.1215V12.16H84.9415V9.652H86.3455V16H84.9415V13.384H82.1215V16H80.7175ZM92.5091 14.344V11.248C92.1371 10.864 91.4051 10.696 90.8411 10.72C89.8691 10.744 89.0651 11.404 89.0651 12.784C89.0651 14.188 89.8691 14.836 90.8411 14.872C91.4051 14.884 92.1371 14.704 92.5091 14.344ZM87.6611 12.784C87.6611 10.864 88.9811 9.544 90.8771 9.544C91.4531 9.544 92.1251 9.676 92.6291 10L92.7491 9.592H93.9131V16H92.7491L92.6291 15.58C92.1251 15.916 91.4531 16.048 90.8771 16.048C88.9811 16.048 87.6611 14.716 87.6611 12.784ZM98.4714 16V9.652H104.231V16H102.827V10.876H99.8874V16H98.4714ZM108.808 14.836C109.996 14.836 110.68 14.02 110.68 12.844C110.68 11.668 109.996 10.828 108.808 10.828C107.62 10.828 106.96 11.656 106.96 12.832C106.96 14.008 107.62 14.836 108.808 14.836ZM108.808 16.048C106.912 16.048 105.556 14.776 105.556 12.832C105.556 10.888 106.912 9.604 108.808 9.604C110.692 9.604 112.096 10.9 112.096 12.844C112.096 14.788 110.692 16.048 108.808 16.048ZM114.594 14.8H117.198V10.876H115.326C115.23 12.124 115.002 13.6 114.594 14.8ZM112.398 17.644V14.8H113.118C113.67 13.468 113.874 11.092 113.934 9.652H118.602V14.8H119.454V17.632H118.218L118.11 16H113.742L113.658 17.644H112.398ZM123.74 16.06C121.832 16.048 120.38 14.848 120.356 12.832C120.38 10.816 121.832 9.604 123.74 9.604C124.64 9.592 125.3 9.772 125.948 10.156L125.372 11.2C124.892 10.948 124.412 10.828 123.74 10.84C122.516 10.864 121.784 11.584 121.76 12.832C121.784 14.068 122.516 14.8 123.74 14.824C124.412 14.836 124.868 14.716 125.36 14.44L125.948 15.472C125.264 15.904 124.64 16.06 123.74 16.06ZM127.147 16V9.652H128.551V11.92H128.899L130.963 9.652H132.691L129.979 12.484L132.823 16H131.095L128.863 13.12H128.551V16H127.147ZM138.095 14.344V11.248C137.723 10.864 136.991 10.696 136.427 10.72C135.455 10.744 134.651 11.404 134.651 12.784C134.651 14.188 135.455 14.836 136.427 14.872C136.991 14.884 137.723 14.704 138.095 14.344ZM133.247 12.784C133.247 10.864 134.567 9.544 136.463 9.544C137.039 9.544 137.711 9.676 138.215 10L138.335 9.592H139.499V16H138.335L138.215 15.58C137.711 15.916 137.039 16.048 136.463 16.048C134.567 16.048 133.247 14.716 133.247 12.784ZM143.205 16.048C142.245 16.06 141.309 15.844 140.637 15.424L141.189 14.344C141.573 14.596 142.365 14.86 143.109 14.86C143.769 14.848 144.405 14.632 144.405 14.008C144.405 13.372 143.769 13.168 143.169 13.168H141.897V12.076H143.133C143.541 12.076 144.105 11.956 144.105 11.428C144.105 10.948 143.625 10.792 143.049 10.792C142.389 10.768 141.597 10.984 141.321 11.164L140.853 10.084C141.453 9.796 142.281 9.604 143.109 9.604C144.309 9.604 145.485 10.072 145.509 11.272C145.509 11.752 145.233 12.292 144.777 12.568C145.449 12.796 145.785 13.432 145.761 14.056C145.749 15.424 144.513 16.012 143.205 16.048ZM147.093 16V9.652H148.497V11.92H148.845L150.909 9.652H152.637L149.925 12.484L152.769 16H151.041L148.809 13.12H148.497V16H147.093ZM153.55 16V9.652H154.906V13.756L158.002 9.652H159.154V16H157.798V11.884L154.726 16H153.55Z" fill="white" fill-opacity="0.24"/>
</svg>
