<svg width="10" height="12" viewBox="0 0 10 12" fill="none" xmlns="http://www.w3.org/2000/svg">
<path d="M7.2 1.19922V2.59636C7.2 2.81974 7.01892 3.00082 6.79554 3.00082H2.80446C2.58108 3.00082 2.4 2.81974 2.4 2.59636V1.19922H0.602746C0.269859 1.19922 0 1.46908 0 1.80196V11.3965C0 11.7294 0.269859 11.9992 0.602746 11.9992H8.99726C9.33014 11.9992 9.6 11.7294 9.6 11.3965V1.80196C9.6 1.46908 9.33014 1.19922 8.99725 1.19922H7.2ZM4.07411 9.72133L2.70768 8.3549C2.63496 8.28217 2.63496 8.16426 2.70768 8.09154L3.29232 7.5069C3.36504 7.43417 3.48295 7.43417 3.55568 7.5069L4.192 8.14322L5.96017 6.31542C6.03166 6.24151 6.14952 6.23954 6.22344 6.311L6.81966 6.88735C6.89363 6.95885 6.89561 7.07677 6.82408 7.15071L4.33964 9.71913C4.26729 9.79392 4.14769 9.79491 4.07411 9.72133Z" fill="#2C7FBB"/>
<path d="M3.43044 0H6.17346C6.41011 0 6.60195 0.191841 6.60195 0.428489V1.97151C6.60195 2.20816 6.41011 2.4 6.17346 2.4H3.43044C3.19379 2.4 3.00195 2.20816 3.00195 1.97151V0.428489C3.00195 0.191841 3.19379 0 3.43044 0Z" fill="#2C7FBB"/>
</svg>
