<svg width="212" height="41" viewBox="0 0 212 41" fill="none" xmlns="http://www.w3.org/2000/svg">
<path d="M30.5475 21.6C25.7475 21.6 21.8355 17.832 21.8355 12.672C21.8355 7.44 25.6515 3.6 30.6915 3.6C34.6995 3.6 37.6755 6 37.6755 6.048L35.9475 8.328C35.9475 8.304 32.6115 4.416 28.9875 4.416C26.4675 4.416 24.3315 6.456 24.3315 9.696C24.3315 15.144 28.0995 19.536 32.2995 19.536C35.4915 19.536 37.6515 16.896 37.6515 16.896L38.2515 17.352C38.2515 17.352 35.5155 21.6 30.5475 21.6ZM45.8295 21.6C41.6535 21.6 39.0855 18.384 39.0855 14.784C39.0855 10.944 42.1335 8.4 45.8295 8.4C50.0055 8.4 52.5255 11.616 52.5255 15.24C52.5255 19.056 49.5255 21.6 45.8295 21.6ZM41.4375 12.768C41.4375 15.6 43.9095 20.664 47.2695 20.664C48.9255 20.664 50.1975 19.32 50.1975 17.352C50.1975 14.616 47.7735 9.264 44.3895 9.264C42.7335 9.264 41.4375 10.728 41.4375 12.768ZM64.9241 8.544V8.76C65.6681 8.424 66.5081 8.232 67.3961 8.232C71.0441 8.232 73.2521 11.376 73.2521 14.952C73.2521 18.696 70.6361 21.192 67.3961 21.192C66.4841 21.192 65.6441 20.976 64.9241 20.616V26.76H62.0441V20.28C61.1801 20.88 60.1481 21.192 59.0681 21.192C55.5881 21.192 53.4521 18.024 53.4521 14.496C53.4521 10.728 55.9961 8.208 59.0681 8.208C60.2201 8.208 61.2281 8.568 62.0441 9.168V6.24C63.4601 6.24 64.9241 6.96 64.9241 8.544ZM60.2441 20.28C60.9641 20.28 61.6121 19.92 62.0441 19.296V11.256C61.0601 10.008 59.2841 9.072 57.8681 9.072C56.4761 9.072 55.3961 10.512 55.3961 12.504C55.3961 15.288 57.4601 20.28 60.2441 20.28ZM66.1481 9.072C65.6921 9.072 65.2841 9.216 64.9241 9.456V18.84C66.0281 19.704 67.4201 20.256 68.6681 20.256C70.1081 20.256 71.2121 18.936 71.2121 17.016C71.2121 14.328 69.1001 9.072 66.1481 9.072ZM74.4348 8.376C75.7548 8.376 77.3148 8.856 77.3148 10.08V13.2C78.1548 12.288 79.5708 11.712 80.6748 11.712C83.6988 11.712 86.6028 14.064 86.6028 16.848C86.6028 19.584 83.6988 21.6 81.2028 21.6C79.6428 21.6 78.3948 20.592 77.3148 20.592C76.3068 20.592 75.9468 21.6 74.4348 21.6V8.376ZM77.3148 15.48V16.416C77.3148 19.272 79.2348 21.144 81.4428 21.144C82.8348 21.144 84.2508 19.872 84.2508 18.312C84.2508 15.6 81.8508 12.36 80.2428 12.36C78.5148 12.36 77.3148 13.608 77.3148 15.48ZM96.6234 9.168C96.7674 9.024 96.9354 8.904 97.1274 8.808C97.7274 8.472 98.3754 8.304 99.0954 8.304V21.024H96.2154V16.968C94.8714 18.408 92.8074 19.92 90.0234 21.48L87.8874 19.272C91.2954 18.768 93.9594 17.832 95.8794 16.464C95.1354 16.656 94.2234 16.728 93.1914 16.728C91.5354 16.728 90.1914 16.32 89.1834 15.456C88.1514 14.616 87.6474 13.584 87.6474 12.384C87.6474 11.184 88.1754 10.2 89.2554 9.432C90.3114 8.688 91.6314 8.304 93.1914 8.304C94.5594 8.304 95.7114 8.592 96.6234 9.168ZM96.2154 15.936V11.064C96.0474 10.824 95.8554 10.584 95.6394 10.368C94.6314 9.36 93.4314 8.856 92.0154 8.856C91.3194 8.856 90.7434 9.072 90.2874 9.48C89.8074 9.912 89.5914 10.44 89.5914 11.088C89.5914 12 90.0714 13.056 91.0314 14.304C91.9914 15.528 93.0954 16.128 94.3674 16.128H94.5594C95.2554 16.152 95.8074 16.08 96.2154 15.936ZM106.209 8.856V4.2H119.889V8.856C119.049 6.792 116.625 5.064 114.489 4.968V21H111.585L111.609 4.968C109.473 5.064 107.049 6.792 106.209 8.856ZM127.724 21.6C123.5 21.6 120.812 18.384 120.812 14.784C120.812 11.016 123.62 8.4 127.268 8.4C130.964 8.4 133.076 10.776 133.076 12.912C133.076 15.048 131.3 16.152 127.82 16.152H123.884C124.868 18.48 127.076 19.824 129.26 19.824C131.396 19.824 133.028 18.552 133.028 18.552L133.364 18.936C133.364 18.936 131.228 21.6 127.724 21.6ZM126.524 9.168C124.556 9.168 123.164 10.728 123.164 12.912C123.164 14.184 123.644 15.48 123.644 15.48H127.364C129.308 15.48 130.316 14.376 130.316 13.032C130.316 10.92 128.66 9.168 126.524 9.168ZM148.595 9L152.603 21H149.651L146.003 10.056L143.627 17.16L144.923 21H141.971L138.371 10.2C137.075 14.904 136.259 18.264 138.155 21H133.955L137.963 9H140.891L143.267 16.08L145.619 9H148.595ZM156.581 14.496H161.621V8.28C162.821 8.28 164.501 8.856 164.501 10.416V21H161.621V15.456H156.581V21H153.701V8.28C154.901 8.28 156.581 8.856 156.581 10.416V14.496ZM171.596 20.856C173.084 20.928 174.716 19.056 175.484 16.656V9H178.364V21.744C177.212 21.744 175.748 21.264 175.508 19.92C175.508 19.848 175.484 19.752 175.484 19.68V18.264C174.02 20.808 172.916 21.576 171.068 21.6C167.492 21.672 165.764 19.224 165.764 15.528V9H168.644C168.62 9.288 168.644 13.488 168.644 15.744C168.644 19.032 169.604 20.76 171.596 20.856ZM182.642 21H179.762V8.28C181.106 8.28 182.642 8.928 182.642 10.584V14.952C184.442 12.984 185.594 11.376 185.402 9H189.602L183.41 14.952H183.506C185.522 14.952 186.17 15.672 186.866 16.536L190.394 21H187.394L182.642 14.976V21Z" fill="#02276F"/>
<path d="M0.150391 38L2.94039 30.99H4.49039L7.28039 38H5.93039L5.30039 36.35H2.13039L1.51039 38H0.150391ZM2.55039 35.26H4.88039L3.74039 32.26H3.69039L2.55039 35.26ZM7.9293 38V32.71H10.1293C10.9593 32.71 11.8693 33.1 11.8593 34.1C11.8593 34.47 11.6993 34.88 11.3393 35.16C11.9793 35.37 12.2493 35.88 12.2593 36.42C12.2593 37.49 11.4493 38 10.5193 38H7.9293ZM9.0193 37.02H10.5393C10.8693 37.02 11.1393 36.79 11.1393 36.45C11.1393 36.08 10.8693 35.81 10.5293 35.81H9.0193V37.02ZM9.0193 34.82H10.2493C10.5993 34.82 10.8193 34.51 10.8193 34.21C10.8193 33.93 10.6193 33.7 10.1593 33.7H9.0193V34.82ZM14.4825 38V33.73H12.8125V32.71H17.3325V33.73H15.6525V38H14.4825ZM20.4393 37.03C21.4293 37.03 21.9993 36.35 21.9993 35.37C21.9993 34.39 21.4293 33.69 20.4393 33.69C19.4493 33.69 18.8993 34.38 18.8993 35.36C18.8993 36.34 19.4493 37.03 20.4393 37.03ZM20.4393 38.04C18.8593 38.04 17.7293 36.98 17.7293 35.36C17.7293 33.74 18.8593 32.67 20.4393 32.67C22.0093 32.67 23.1793 33.75 23.1793 35.37C23.1793 36.99 22.0093 38.04 20.4393 38.04ZM26.737 37.02C27.747 37.02 28.297 36.33 28.297 35.36C28.297 34.24 27.667 33.73 26.927 33.7C26.427 33.67 25.827 33.78 25.447 34.18V36.62C25.747 36.92 26.267 37.02 26.737 37.02ZM24.277 39.72V32.71H25.207L25.327 33.07C25.817 32.81 26.327 32.67 26.887 32.67C28.497 32.67 29.477 33.75 29.477 35.36C29.477 36.97 28.317 38.04 26.737 38.04C26.297 38.04 25.857 37.94 25.447 37.75V39.72H24.277ZM33.0758 38V32.71H37.8758V38H36.7058V33.73H34.2558V38H33.0758ZM41.6393 37.02C42.6493 37.02 43.1993 36.33 43.1993 35.36C43.1993 34.24 42.5693 33.73 41.8293 33.7C41.3293 33.67 40.7293 33.78 40.3493 34.18V36.62C40.6493 36.92 41.1693 37.02 41.6393 37.02ZM39.1793 39.72V32.71H40.1093L40.2293 33.07C40.7193 32.81 41.2293 32.67 41.7893 32.67C43.3993 32.67 44.3793 33.75 44.3793 35.36C44.3793 36.97 43.2193 38.04 41.6393 38.04C41.1993 38.04 40.7593 37.94 40.3493 37.75V39.72H39.1793ZM47.9881 37.03C48.9781 37.03 49.5481 36.35 49.5481 35.37C49.5481 34.39 48.9781 33.69 47.9881 33.69C46.9981 33.69 46.4481 34.38 46.4481 35.36C46.4481 36.34 46.9981 37.03 47.9881 37.03ZM47.9881 38.04C46.4081 38.04 45.2781 36.98 45.2781 35.36C45.2781 33.74 46.4081 32.67 47.9881 32.67C49.5581 32.67 50.7281 33.75 50.7281 35.37C50.7281 36.99 49.5581 38.04 47.9881 38.04ZM52.8658 34.9H55.5658C55.5358 34.07 55.0558 33.62 54.2458 33.62C53.4758 33.62 52.9058 34.15 52.8658 34.9ZM54.4758 38.04C52.8758 38.04 51.6858 37.15 51.6358 35.47C51.5858 33.81 52.6258 32.66 54.3058 32.67C56.0758 32.68 56.7158 33.88 56.7158 35.54V35.87H52.8558C52.9458 36.65 53.6758 37.02 54.4858 37.04C55.1058 37.06 55.7958 36.96 56.2458 36.78L56.4658 37.69C55.9158 37.94 55.2258 38.04 54.4758 38.04ZM57.8121 38V32.71H58.9821V34.6H59.2721L60.9921 32.71H62.4321L60.1721 35.07L62.5421 38H61.1021L59.2421 35.6H58.9821V38H57.8121ZM64.463 38V33.73H62.793V32.71H67.313V33.73H65.633V38H64.463ZM71.7498 36.62V34.04C71.4398 33.72 70.8298 33.58 70.3598 33.6C69.5498 33.62 68.8798 34.17 68.8798 35.32C68.8798 36.49 69.5498 37.03 70.3598 37.06C70.8298 37.07 71.4398 36.92 71.7498 36.62ZM67.7098 35.32C67.7098 33.72 68.8098 32.62 70.3898 32.62C70.8698 32.62 71.4298 32.73 71.8498 33L71.9498 32.66H72.9198V38H71.9498L71.8498 37.65C71.4298 37.93 70.8698 38.04 70.3898 38.04C68.8098 38.04 67.7098 36.93 67.7098 35.32ZM76.7184 38V32.71H77.8484V36.13L80.4284 32.71H81.3884V38H80.2584V34.57L77.6984 38H76.7184ZM85.1852 38V32.71H87.3852C88.2152 32.71 89.1252 33.1 89.1152 34.1C89.1152 34.47 88.9552 34.88 88.5952 35.16C89.2352 35.37 89.5052 35.88 89.5152 36.42C89.5152 37.49 88.7052 38 87.7752 38H85.1852ZM86.2752 37.02H87.7952C88.1252 37.02 88.3952 36.79 88.3952 36.45C88.3952 36.08 88.1252 35.81 87.7852 35.81H86.2752V37.02ZM86.2752 34.82H87.5052C87.8552 34.82 88.0752 34.51 88.0752 34.21C88.0752 33.93 87.8752 33.7 87.4152 33.7H86.2752V34.82ZM94.5037 36.62V34.04C94.1937 33.72 93.5837 33.58 93.1137 33.6C92.3037 33.62 91.6337 34.17 91.6337 35.32C91.6337 36.49 92.3037 37.03 93.1137 37.06C93.5837 37.07 94.1937 36.92 94.5037 36.62ZM90.4637 35.32C90.4637 33.72 91.5637 32.62 93.1437 32.62C93.6237 32.62 94.1837 32.73 94.6037 33L94.7037 32.66H95.6737V38H94.7037L94.6037 37.65C94.1837 37.93 93.6237 38.04 93.1437 38.04C91.5637 38.04 90.4637 36.93 90.4637 35.32ZM96.9723 38V32.71H98.1423V37H100.192V32.71H101.362V37H103.412V32.71H104.592V38H96.9723ZM108.388 38V32.71H113.188V38H112.018V33.73H109.568V38H108.388ZM116.952 37.02C117.962 37.02 118.512 36.33 118.512 35.36C118.512 34.24 117.882 33.73 117.142 33.7C116.642 33.67 116.042 33.78 115.662 34.18V36.62C115.962 36.92 116.482 37.02 116.952 37.02ZM114.492 39.72V32.71H115.422L115.542 33.07C116.032 32.81 116.542 32.67 117.102 32.67C118.712 32.67 119.692 33.75 119.692 35.36C119.692 36.97 118.532 38.04 116.952 38.04C116.512 38.04 116.072 37.94 115.662 37.75V39.72H114.492ZM123.301 37.03C124.291 37.03 124.861 36.35 124.861 35.37C124.861 34.39 124.291 33.69 123.301 33.69C122.311 33.69 121.761 34.38 121.761 35.36C121.761 36.34 122.311 37.03 123.301 37.03ZM123.301 38.04C121.721 38.04 120.591 36.98 120.591 35.36C120.591 33.74 121.721 32.67 123.301 32.67C124.871 32.67 126.041 33.75 126.041 35.37C126.041 36.99 124.871 38.04 123.301 38.04ZM127.138 38V32.71H129.338C130.168 32.71 131.078 33.1 131.068 34.1C131.068 34.47 130.908 34.88 130.548 35.16C131.188 35.37 131.458 35.88 131.468 36.42C131.468 37.49 130.658 38 129.728 38H127.138ZM128.228 37.02H129.748C130.078 37.02 130.348 36.79 130.348 36.45C130.348 36.08 130.078 35.81 129.738 35.81H128.228V37.02ZM128.228 34.82H129.458C129.808 34.82 130.028 34.51 130.028 34.21C130.028 33.93 129.828 33.7 129.368 33.7H128.228V34.82ZM135.127 37.03C136.117 37.03 136.687 36.35 136.687 35.37C136.687 34.39 136.117 33.69 135.127 33.69C134.137 33.69 133.587 34.38 133.587 35.36C133.587 36.34 134.137 37.03 135.127 37.03ZM135.127 38.04C133.547 38.04 132.417 36.98 132.417 35.36C132.417 33.74 133.547 32.67 135.127 32.67C136.697 32.67 137.867 33.75 137.867 35.37C137.867 36.99 136.697 38.04 135.127 38.04ZM139.949 37H142.119V33.73H140.559C140.479 34.77 140.289 36 139.949 37ZM138.119 39.37V37H138.719C139.179 35.89 139.349 33.91 139.399 32.71H143.289V37H143.999V39.36H142.969L142.879 38H139.239L139.169 39.37H138.119ZM144.951 38V32.71H146.121V34.8H148.471V32.71H149.641V38H148.471V35.82H146.121V38H144.951ZM150.937 38V32.71H152.067V36.13L154.647 32.71H155.607V38H154.477V34.57L151.917 38H150.937ZM156.904 38V32.71H158.074V34.6H158.364L160.084 32.71H161.524L159.264 35.07L161.634 38H160.194L158.334 35.6H158.074V38H156.904ZM164.785 38V32.71H165.955V34.6H166.245L167.965 32.71H169.405L167.145 35.07L169.515 38H168.075L166.215 35.6H165.955V38H164.785ZM174.366 35.02H175.786V33.72H174.356C173.966 33.72 173.746 33.99 173.746 34.37C173.746 34.75 173.976 35.02 174.366 35.02ZM172.116 38L173.686 35.9C172.986 35.66 172.546 35.01 172.586 34.27C172.636 33.21 173.496 32.71 174.466 32.71H176.966V38H175.786V36.02H174.966L173.486 38H172.116ZM180.881 38.05C179.291 38.04 178.081 37.04 178.061 35.36C178.081 33.68 179.291 32.67 180.881 32.67C181.631 32.66 182.181 32.81 182.721 33.13L182.241 34C181.841 33.79 181.441 33.69 180.881 33.7C179.861 33.72 179.251 34.32 179.231 35.36C179.251 36.39 179.861 37 180.881 37.02C181.441 37.03 181.821 36.93 182.231 36.7L182.721 37.56C182.151 37.92 181.631 38.05 180.881 38.05ZM183.72 38V32.71H184.89V34.8H187.24V32.71H188.41V38H187.24V35.82H184.89V38H183.72ZM192.217 37.03C193.207 37.03 193.777 36.35 193.777 35.37C193.777 34.39 193.207 33.69 192.217 33.69C191.227 33.69 190.677 34.38 190.677 35.36C190.677 36.34 191.227 37.03 192.217 37.03ZM192.217 38.04C190.637 38.04 189.507 36.98 189.507 35.36C189.507 33.74 190.637 32.67 192.217 32.67C193.787 32.67 194.957 33.75 194.957 35.37C194.957 36.99 193.787 38.04 192.217 38.04ZM198.674 38.05C197.084 38.04 195.874 37.04 195.854 35.36C195.874 33.68 197.084 32.67 198.674 32.67C199.424 32.66 199.974 32.81 200.514 33.13L200.034 34C199.634 33.79 199.234 33.69 198.674 33.7C197.654 33.72 197.044 34.32 197.024 35.36C197.044 36.39 197.654 37 198.674 37.02C199.234 37.03 199.614 36.93 200.024 36.7L200.514 37.56C199.944 37.92 199.424 38.05 198.674 38.05ZM202.783 38V33.73H201.113V32.71H205.633V33.73H203.953V38H202.783ZM206.533 38V32.71H207.663V36.13L210.243 32.71H211.203V38H210.073V34.57L207.513 38H206.533Z" fill="#02276F"/>
</svg>
