<svg width="170" height="36" viewBox="0 0 170 36" fill="none" xmlns="http://www.w3.org/2000/svg">
<path d="M8.83518 19.55C4.43518 19.55 0.84918 16.096 0.84918 11.366C0.84918 6.57 4.34718 3.05 8.96718 3.05C12.6412 3.05 15.3692 5.25 15.3692 5.294L13.7852 7.384C13.7852 7.362 10.7272 3.798 7.40518 3.798C5.09518 3.798 3.13718 5.668 3.13718 8.638C3.13718 13.632 6.59118 17.658 10.4412 17.658C13.3672 17.658 15.3472 15.238 15.3472 15.238L15.8972 15.656C15.8972 15.656 13.3892 19.55 8.83518 19.55ZM22.8437 19.55C19.0157 19.55 16.6617 16.602 16.6617 13.302C16.6617 9.782 19.4557 7.45 22.8437 7.45C26.6717 7.45 28.9817 10.398 28.9817 13.72C28.9817 17.218 26.2317 19.55 22.8437 19.55ZM18.8177 11.454C18.8177 14.05 21.0837 18.692 24.1637 18.692C25.6817 18.692 26.8477 17.46 26.8477 15.656C26.8477 13.148 24.6257 8.242 21.5237 8.242C20.0057 8.242 18.8177 9.584 18.8177 11.454ZM40.3471 7.582V7.78C41.0291 7.472 41.7991 7.296 42.6131 7.296C45.9571 7.296 47.9811 10.178 47.9811 13.456C47.9811 16.888 45.5831 19.176 42.6131 19.176C41.7771 19.176 41.0071 18.978 40.3471 18.648V24.28H37.7071V18.34C36.9151 18.89 35.9691 19.176 34.9791 19.176C31.7891 19.176 29.8311 16.272 29.8311 13.038C29.8311 9.584 32.1631 7.274 34.9791 7.274C36.0351 7.274 36.9591 7.604 37.7071 8.154V5.47C39.0051 5.47 40.3471 6.13 40.3471 7.582ZM36.0571 18.34C36.7171 18.34 37.3111 18.01 37.7071 17.438V10.068C36.8051 8.924 35.1771 8.066 33.8791 8.066C32.6031 8.066 31.6131 9.386 31.6131 11.212C31.6131 13.764 33.5051 18.34 36.0571 18.34ZM41.4691 8.066C41.0511 8.066 40.6771 8.198 40.3471 8.418V17.02C41.3591 17.812 42.6351 18.318 43.7791 18.318C45.0991 18.318 46.1111 17.108 46.1111 15.348C46.1111 12.884 44.1751 8.066 41.4691 8.066ZM49.0653 7.428C50.2753 7.428 51.7053 7.868 51.7053 8.99V11.85C52.4753 11.014 53.7733 10.486 54.7853 10.486C57.5573 10.486 60.2193 12.642 60.2193 15.194C60.2193 17.702 57.5573 19.55 55.2693 19.55C53.8393 19.55 52.6953 18.626 51.7053 18.626C50.7813 18.626 50.4513 19.55 49.0653 19.55V7.428ZM51.7053 13.94V14.798C51.7053 17.416 53.4653 19.132 55.4893 19.132C56.7653 19.132 58.0633 17.966 58.0633 16.536C58.0633 14.05 55.8633 11.08 54.3893 11.08C52.8053 11.08 51.7053 12.224 51.7053 13.94ZM69.4048 8.154C69.5368 8.022 69.6908 7.912 69.8668 7.824C70.4168 7.516 71.0108 7.362 71.6708 7.362V19.022H69.0308V15.304C67.7988 16.624 65.9068 18.01 63.3548 19.44L61.3968 17.416C64.5208 16.954 66.9628 16.096 68.7228 14.842C68.0408 15.018 67.2048 15.084 66.2588 15.084C64.7408 15.084 63.5088 14.71 62.5848 13.918C61.6388 13.148 61.1768 12.202 61.1768 11.102C61.1768 10.002 61.6608 9.1 62.6508 8.396C63.6188 7.714 64.8288 7.362 66.2588 7.362C67.5128 7.362 68.5688 7.626 69.4048 8.154ZM69.0308 14.358V9.892C68.8768 9.672 68.7008 9.452 68.5028 9.254C67.5788 8.33 66.4788 7.868 65.1808 7.868C64.5428 7.868 64.0148 8.066 63.5968 8.44C63.1568 8.836 62.9588 9.32 62.9588 9.914C62.9588 10.75 63.3988 11.718 64.2788 12.862C65.1588 13.984 66.1708 14.534 67.3368 14.534H67.5128C68.1508 14.556 68.6568 14.49 69.0308 14.358ZM78.1919 7.868V3.6H90.7319V7.868C89.9619 5.976 87.7399 4.392 85.7819 4.304V19H83.1199L83.1419 4.304C81.1839 4.392 78.9619 5.976 78.1919 7.868ZM97.9137 19.55C94.0417 19.55 91.5777 16.602 91.5777 13.302C91.5777 9.848 94.1517 7.45 97.4957 7.45C100.884 7.45 102.82 9.628 102.82 11.586C102.82 13.544 101.192 14.556 98.0017 14.556H94.3937C95.2957 16.69 97.3197 17.922 99.3217 17.922C101.28 17.922 102.776 16.756 102.776 16.756L103.084 17.108C103.084 17.108 101.126 19.55 97.9137 19.55ZM96.8137 8.154C95.0097 8.154 93.7337 9.584 93.7337 11.586C93.7337 12.752 94.1737 13.94 94.1737 13.94H97.5837C99.3657 13.94 100.29 12.928 100.29 11.696C100.29 9.76 98.7717 8.154 96.8137 8.154ZM117.045 8L120.719 19H118.013L114.669 8.968L112.491 15.48L113.679 19H110.973L107.673 9.1C106.485 13.412 105.737 16.492 107.475 19H103.625L107.299 8H109.983L112.161 14.49L114.317 8H117.045ZM124.366 13.038H128.986V7.34C130.086 7.34 131.626 7.868 131.626 9.298V19H128.986V13.918H124.366V19H121.726V7.34C122.826 7.34 124.366 7.868 124.366 9.298V13.038ZM138.13 18.868C139.494 18.934 140.99 17.218 141.694 15.018V8H144.334V19.682C143.278 19.682 141.936 19.242 141.716 18.01C141.716 17.944 141.694 17.856 141.694 17.79V16.492C140.352 18.824 139.34 19.528 137.646 19.55C134.368 19.616 132.784 17.372 132.784 13.984V8H135.424C135.402 8.264 135.424 12.114 135.424 14.182C135.424 17.196 136.304 18.78 138.13 18.868ZM148.255 19H145.615V7.34C146.847 7.34 148.255 7.934 148.255 9.452V13.456C149.905 11.652 150.961 10.178 150.785 8H154.635L148.959 13.456H149.047C150.895 13.456 151.489 14.116 152.127 14.908L155.361 19H152.611L148.255 13.478V19Z" fill="#02276F"/>
<path d="M0 34L2.232 28.392H3.472L5.704 34H4.624L4.12 32.68H1.584L1.088 34H0ZM1.92 31.808H3.784L2.872 29.408H2.832L1.92 31.808ZM6.22313 34V29.768H7.98313C8.64713 29.768 9.37513 30.08 9.36713 30.88C9.36713 31.176 9.23913 31.504 8.95113 31.728C9.46313 31.896 9.67913 32.304 9.68713 32.736C9.68713 33.592 9.03913 34 8.29513 34H6.22313ZM7.09513 33.216H8.31113C8.57513 33.216 8.79113 33.032 8.79113 32.76C8.79113 32.464 8.57513 32.248 8.30313 32.248H7.09513V33.216ZM7.09513 31.456H8.07913C8.35913 31.456 8.53513 31.208 8.53513 30.968C8.53513 30.744 8.37513 30.56 8.00713 30.56H7.09513V31.456ZM11.4657 34V30.584H10.1297V29.768H13.7457V30.584H12.4017V34H11.4657ZM16.2311 33.224C17.0231 33.224 17.4791 32.68 17.4791 31.896C17.4791 31.112 17.0231 30.552 16.2311 30.552C15.4391 30.552 14.9991 31.104 14.9991 31.888C14.9991 32.672 15.4391 33.224 16.2311 33.224ZM16.2311 34.032C14.9671 34.032 14.0631 33.184 14.0631 31.888C14.0631 30.592 14.9671 29.736 16.2311 29.736C17.4871 29.736 18.4231 30.6 18.4231 31.896C18.4231 33.192 17.4871 34.032 16.2311 34.032ZM21.2693 33.216C22.0773 33.216 22.5173 32.664 22.5173 31.888C22.5173 30.992 22.0133 30.584 21.4213 30.56C21.0213 30.536 20.5413 30.624 20.2373 30.944V32.896C20.4773 33.136 20.8932 33.216 21.2693 33.216ZM19.3013 35.376V29.768H20.0453L20.1413 30.056C20.5333 29.848 20.9413 29.736 21.3893 29.736C22.6773 29.736 23.4613 30.6 23.4613 31.888C23.4613 33.176 22.5333 34.032 21.2693 34.032C20.9173 34.032 20.5653 33.952 20.2373 33.8V35.376H19.3013ZM26.3403 34V29.768H30.1803V34H29.2443V30.584H27.2843V34H26.3403ZM33.1911 33.216C33.9991 33.216 34.4391 32.664 34.4391 31.888C34.4391 30.992 33.9351 30.584 33.3431 30.56C32.9431 30.536 32.4631 30.624 32.1591 30.944V32.896C32.3991 33.136 32.8151 33.216 33.1911 33.216ZM31.2231 35.376V29.768H31.9671L32.0631 30.056C32.4551 29.848 32.8631 29.736 33.3111 29.736C34.5991 29.736 35.3831 30.6 35.3831 31.888C35.3831 33.176 34.4551 34.032 33.1911 34.032C32.8391 34.032 32.4871 33.952 32.1591 33.8V35.376H31.2231ZM38.2702 33.224C39.0622 33.224 39.5182 32.68 39.5182 31.896C39.5182 31.112 39.0622 30.552 38.2702 30.552C37.4782 30.552 37.0382 31.104 37.0382 31.888C37.0382 32.672 37.4782 33.224 38.2702 33.224ZM38.2702 34.032C37.0062 34.032 36.1022 33.184 36.1022 31.888C36.1022 30.592 37.0062 29.736 38.2702 29.736C39.5262 29.736 40.4622 30.6 40.4622 31.896C40.4622 33.192 39.5262 34.032 38.2702 34.032ZM42.1723 31.52H44.3323C44.3083 30.856 43.9243 30.496 43.2763 30.496C42.6603 30.496 42.2043 30.92 42.1723 31.52ZM43.4603 34.032C42.1803 34.032 41.2283 33.32 41.1883 31.976C41.1483 30.648 41.9803 29.728 43.3243 29.736C44.7403 29.744 45.2523 30.704 45.2523 32.032V32.296H42.1643C42.2363 32.92 42.8203 33.216 43.4683 33.232C43.9643 33.248 44.5163 33.168 44.8763 33.024L45.0523 33.752C44.6123 33.952 44.0603 34.032 43.4603 34.032ZM46.1294 34V29.768H47.0654V31.28H47.2974L48.6734 29.768H49.8254L48.0174 31.656L49.9134 34H48.7614L47.2734 32.08H47.0654V34H46.1294ZM51.4501 34V30.584H50.1141V29.768H53.7301V30.584H52.3861V34H51.4501ZM57.2795 32.896V30.832C57.0315 30.576 56.5435 30.464 56.1675 30.48C55.5195 30.496 54.9835 30.936 54.9835 31.856C54.9835 32.792 55.5195 33.224 56.1675 33.248C56.5435 33.256 57.0315 33.136 57.2795 32.896ZM54.0475 31.856C54.0475 30.576 54.9275 29.696 56.1915 29.696C56.5755 29.696 57.0235 29.784 57.3595 30L57.4395 29.728H58.2155V34H57.4395L57.3595 33.72C57.0235 33.944 56.5755 34.032 56.1915 34.032C54.9275 34.032 54.0475 33.144 54.0475 31.856ZM61.2544 34V29.768H62.1584V32.504L64.2224 29.768H64.9904V34H64.0864V31.256L62.0384 34H61.2544ZM68.0278 34V29.768H69.7878C70.4518 29.768 71.1798 30.08 71.1718 30.88C71.1718 31.176 71.0438 31.504 70.7558 31.728C71.2678 31.896 71.4838 32.304 71.4918 32.736C71.4918 33.592 70.8438 34 70.0998 34H68.0278ZM68.8998 33.216H70.1158C70.3798 33.216 70.5958 33.032 70.5958 32.76C70.5958 32.464 70.3798 32.248 70.1078 32.248H68.8998V33.216ZM68.8998 31.456H69.8838C70.1638 31.456 70.3398 31.208 70.3398 30.968C70.3398 30.744 70.1798 30.56 69.8118 30.56H68.8998V31.456ZM75.4826 32.896V30.832C75.2346 30.576 74.7466 30.464 74.3706 30.48C73.7226 30.496 73.1866 30.936 73.1866 31.856C73.1866 32.792 73.7226 33.224 74.3706 33.248C74.7466 33.256 75.2346 33.136 75.4826 32.896ZM72.2506 31.856C72.2506 30.576 73.1306 29.696 74.3946 29.696C74.7786 29.696 75.2266 29.784 75.5626 30L75.6426 29.728H76.4186V34H75.6426L75.5626 33.72C75.2266 33.944 74.7786 34.032 74.3946 34.032C73.1306 34.032 72.2506 33.144 72.2506 31.856ZM77.4575 34V29.768H78.3935V33.2H80.0335V29.768H80.9695V33.2H82.6095V29.768H83.5535V34H77.4575ZM86.5903 34V29.768H90.4303V34H89.4943V30.584H87.5343V34H86.5903ZM93.4411 33.216C94.2491 33.216 94.6891 32.664 94.6891 31.888C94.6891 30.992 94.1851 30.584 93.5931 30.56C93.1931 30.536 92.7131 30.624 92.4091 30.944V32.896C92.6491 33.136 93.0651 33.216 93.4411 33.216ZM91.4731 35.376V29.768H92.2171L92.3131 30.056C92.7051 29.848 93.1131 29.736 93.5611 29.736C94.8491 29.736 95.6331 30.6 95.6331 31.888C95.6331 33.176 94.7051 34.032 93.4411 34.032C93.0891 34.032 92.7371 33.952 92.4091 33.8V35.376H91.4731ZM98.5202 33.224C99.3122 33.224 99.7682 32.68 99.7682 31.896C99.7682 31.112 99.3122 30.552 98.5202 30.552C97.7282 30.552 97.2882 31.104 97.2882 31.888C97.2882 32.672 97.7282 33.224 98.5202 33.224ZM98.5202 34.032C97.2562 34.032 96.3522 33.184 96.3522 31.888C96.3522 30.592 97.2562 29.736 98.5202 29.736C99.7762 29.736 100.712 30.6 100.712 31.896C100.712 33.192 99.7762 34.032 98.5202 34.032ZM101.59 34V29.768H103.35C104.014 29.768 104.742 30.08 104.734 30.88C104.734 31.176 104.606 31.504 104.318 31.728C104.83 31.896 105.046 32.304 105.054 32.736C105.054 33.592 104.406 34 103.662 34H101.59ZM102.462 33.216H103.678C103.942 33.216 104.158 33.032 104.158 32.76C104.158 32.464 103.942 32.248 103.67 32.248H102.462V33.216ZM102.462 31.456H103.446C103.726 31.456 103.902 31.208 103.902 30.968C103.902 30.744 103.742 30.56 103.374 30.56H102.462V31.456ZM107.981 33.224C108.773 33.224 109.229 32.68 109.229 31.896C109.229 31.112 108.773 30.552 107.981 30.552C107.189 30.552 106.749 31.104 106.749 31.888C106.749 32.672 107.189 33.224 107.981 33.224ZM107.981 34.032C106.717 34.032 105.813 33.184 105.813 31.888C105.813 30.592 106.717 29.736 107.981 29.736C109.237 29.736 110.173 30.6 110.173 31.896C110.173 33.192 109.237 34.032 107.981 34.032ZM111.839 33.2H113.575V30.584H112.327C112.263 31.416 112.111 32.4 111.839 33.2ZM110.375 35.096V33.2H110.855C111.223 32.312 111.359 30.728 111.399 29.768H114.511V33.2H115.079V35.088H114.255L114.183 34H111.271L111.215 35.096H110.375ZM115.84 34V29.768H116.776V31.44H118.656V29.768H119.592V34H118.656V32.256H116.776V34H115.84ZM120.629 34V29.768H121.533V32.504L123.597 29.768H124.365V34H123.461V31.256L121.413 34H120.629ZM125.403 34V29.768H126.339V31.28H126.571L127.947 29.768H129.099L127.291 31.656L129.187 34H128.035L126.547 32.08H126.339V34H125.403ZM131.708 34V29.768H132.644V31.28H132.876L134.252 29.768H135.404L133.596 31.656L135.492 34H134.34L132.852 32.08H132.644V34H131.708ZM139.372 31.616H140.508V30.576H139.364C139.052 30.576 138.876 30.792 138.876 31.096C138.876 31.4 139.06 31.616 139.372 31.616ZM137.572 34L138.828 32.32C138.268 32.128 137.916 31.608 137.948 31.016C137.988 30.168 138.676 29.768 139.452 29.768H141.452V34H140.508V32.416H139.852L138.668 34H137.572ZM144.585 34.04C143.313 34.032 142.345 33.232 142.329 31.888C142.345 30.544 143.313 29.736 144.585 29.736C145.185 29.728 145.625 29.848 146.057 30.104L145.673 30.8C145.353 30.632 145.033 30.552 144.585 30.56C143.769 30.576 143.281 31.056 143.265 31.888C143.281 32.712 143.769 33.2 144.585 33.216C145.033 33.224 145.337 33.144 145.665 32.96L146.057 33.648C145.601 33.936 145.185 34.04 144.585 34.04ZM146.856 34V29.768H147.792V31.44H149.672V29.768H150.608V34H149.672V32.256H147.792V34H146.856ZM153.653 33.224C154.445 33.224 154.901 32.68 154.901 31.896C154.901 31.112 154.445 30.552 153.653 30.552C152.861 30.552 152.421 31.104 152.421 31.888C152.421 32.672 152.861 33.224 153.653 33.224ZM153.653 34.032C152.389 34.032 151.485 33.184 151.485 31.888C151.485 30.592 152.389 29.736 153.653 29.736C154.909 29.736 155.845 30.6 155.845 31.896C155.845 33.192 154.909 34.032 153.653 34.032ZM158.819 34.04C157.547 34.032 156.579 33.232 156.563 31.888C156.579 30.544 157.547 29.736 158.819 29.736C159.419 29.728 159.859 29.848 160.291 30.104L159.907 30.8C159.587 30.632 159.267 30.552 158.819 30.56C158.003 30.576 157.515 31.056 157.499 31.888C157.515 32.712 158.003 33.2 158.819 33.216C159.267 33.224 159.571 33.144 159.899 32.96L160.291 33.648C159.835 33.936 159.419 34.04 158.819 34.04ZM162.106 34V30.584H160.77V29.768H164.386V30.584H163.042V34H162.106ZM165.106 34V29.768H166.01V32.504L168.074 29.768H168.842V34H167.938V31.256L165.89 34H165.106Z" fill="#02276F"/>
</svg>
