<svg width="32" height="32" viewBox="0 0 32 32" fill="none" xmlns="http://www.w3.org/2000/svg">
<rect width="32" height="32" rx="4" fill="#F6F6F6"/>
<path d="M16 8C20.4184 8 24 11.5816 24 16C24 20.4184 20.4184 24 16 24C14.5862 24.0023 13.1973 23.6281 11.976 22.916L8.00321 24L9.08481 20.0256C8.37209 18.8039 7.99765 17.4144 8.00001 16C8.00001 11.5816 11.5816 8 16 8ZM13.2736 12.24L13.1136 12.2464C13.01 12.2527 12.9088 12.2799 12.816 12.3264C12.7292 12.3755 12.65 12.437 12.5808 12.5088C12.4848 12.5992 12.4304 12.6776 12.372 12.7536C12.0761 13.1383 11.9168 13.6106 11.9192 14.096C11.9208 14.488 12.0232 14.8696 12.1832 15.2264C12.5104 15.948 13.0488 16.712 13.7592 17.42C13.9304 17.5904 14.0984 17.7616 14.2792 17.9208C15.1619 18.698 16.2138 19.2584 17.3512 19.5576L17.8056 19.6272C17.9536 19.6352 18.1016 19.624 18.2504 19.6168C18.4834 19.6048 18.7109 19.5417 18.9168 19.432C19.0216 19.378 19.1238 19.3193 19.2232 19.256C19.2232 19.256 19.2576 19.2336 19.3232 19.184C19.4312 19.104 19.4976 19.0472 19.5872 18.9536C19.6536 18.8848 19.7112 18.804 19.7552 18.712C19.8176 18.5816 19.88 18.3328 19.9056 18.1256C19.9248 17.9672 19.9192 17.8808 19.9168 17.8272C19.9136 17.7416 19.8424 17.6528 19.7648 17.6152L19.2992 17.4064C19.2992 17.4064 18.6032 17.1032 18.1776 16.9096C18.1331 16.8901 18.0853 16.879 18.0368 16.8768C17.9821 16.8712 17.9268 16.8773 17.8746 16.8949C17.8224 16.9124 17.7746 16.9409 17.7344 16.9784C17.7304 16.9768 17.6768 17.0224 17.0984 17.7232C17.0652 17.7678 17.0195 17.8015 16.967 17.82C16.9146 17.8386 16.8579 17.8411 16.804 17.8272C16.7519 17.8132 16.7008 17.7956 16.6512 17.7744C16.552 17.7328 16.5176 17.7168 16.4496 17.688C15.9905 17.4876 15.5654 17.2169 15.1896 16.8856C15.0888 16.7976 14.9952 16.7016 14.8992 16.6088C14.5845 16.3074 14.3102 15.9664 14.0832 15.5944L14.036 15.5184C14.0021 15.4673 13.9747 15.4122 13.9544 15.3544C13.924 15.2368 14.0032 15.1424 14.0032 15.1424C14.0032 15.1424 14.1976 14.9296 14.288 14.8144C14.376 14.7024 14.4504 14.5936 14.4984 14.516C14.5928 14.364 14.6224 14.208 14.5728 14.0872C14.3488 13.54 14.1168 12.9952 13.8784 12.4544C13.8312 12.3472 13.6912 12.2704 13.564 12.2552C13.5208 12.2504 13.4776 12.2456 13.4344 12.2424C13.327 12.2371 13.2193 12.2381 13.112 12.2456L13.2728 12.2392L13.2736 12.24Z" fill="#02276F"/>
</svg>
